# xmcd
#
# Track frame offsets:
# 150
# 15299
# 32698
# 51407
# 65615
#
# Disc length: 1147 seconds
#
#
# Revision: 0
# Processed by: cddbd v1.5.2PL0 Copyright (c) Steve Scherf et al.
# Submitted via: Nero 7, 11, 10, 0 
#
DISCID=39047905
DTITLE=Howlin' Bill - Blues
DYEAR=1900
DGENRE=Blues
TTITLE0=One Bad Stud
TTITLE1=Foxy Little Lady
TTITLE2=Teeny Bit
TTITLE3=Just Your Fool
TTITLE4=Don't You Know
EXTD=
EXTT0=One Bad Stud
EXTT1=Foxy Little Lady
EXTT2=Teeny Bit
EXTT3=Just Your Fool
EXTT4=Don't You Know
PLAYORDER=
